<?xml version="1.0" encoding="utf-8"?>
<!-- Generator: Adobe Illustrator 20.1.0, SVG Export Plug-In . SVG Version: 6.00 Build 0)  -->

<?xml-stylesheet type="text/css" href="../css/europe.css" ?>
<svg version="1.1" id="europe" xmlns="http://www.w3.org/2000/svg" xmlns:xlink="http://www.w3.org/1999/xlink" x="0px" y="0px"
	 viewBox="0 0 696 777" style="enable-background:new 0 0 696 777;" xml:space="preserve">
	

<polygon id="espagne" class="espagne" points="58.8,624 59.5,614.9 66.5,605.8 71.3,602.2 75.6,602.5 78.4,600.3 76.6,597.4 73.2,595.7 
	74,587.4 79.2,577.9 83.9,574.7 83.9,571.8 81.5,568.4 81.3,552.9 85.1,554 90.6,552.9 93.9,543.9 93.9,537 99.3,536 102.5,532.8 
	104.2,520 110.6,516.4 117.8,515.7 122.6,509.9 121.5,506.2 117.1,503.3 118,494.5 110.6,491.9 102,491.7 95.9,486.5 90.5,486.9 
	86.4,484.1 86.3,479.5 88.1,476.8 78.2,477.3 70.5,481.5 71.4,476.3 74.6,472.6 76.9,467.2 77,463.2 75.1,459.6 76.2,454.5 
	75.6,449.7 74.1,445.8 77.3,440.6 80.4,438.5 84.2,440.1 88.8,439.2 93.5,439.9 98.9,444.9 100.9,442.2 100.6,434.8 111.2,433.6 
	123.9,446.4 133.9,447.3 143.3,451.3 153.3,454.6 180.8,469.5 195.9,470.5 199.4,472.8 196.7,476 201.8,476.4 207.1,479.2 
	209.3,476.9 216,480.2 225.9,488.1 231.7,484.8 237.3,488.9 241.9,492.2 241.9,495.3 246.6,496 247.1,501.6 253.9,506.7 
	253.9,510.3 260.8,511.3 265.3,518.2 272.4,518.7 280.8,520.7 282.5,515.6 294,522.7 297.3,523.8 297.8,526.9 302.6,527.7 
	304.9,531 304.9,535.9 309.9,538.9 317.6,538.7 319.6,541.4 330.4,541.7 335.6,544.9 337.7,549.9 334.2,549.9 333.6,552.1 
	335.6,556.8 334.2,560.9 331.8,560.9 324.3,564.6 311.7,565.8 305.6,572.1 298.2,573.9 278.5,573.9 269.1,580.4 272.7,582.2 
	269.5,584.5 266.2,583.7 254.4,594 238.9,610.8 238.3,619 240.6,629.3 246.6,633.9 245,639.6 241.4,639.7 235.8,642.7 229.6,644.1 
	221.3,651.3 216.6,653 214.8,658.8 218.7,661.7 217.3,662.8 211.2,661.6 202.8,661.5 193.6,663.9 186.1,669.6 184.4,675.2 
	176.5,680.9 172,675.1 166.5,674.4 163.6,676.9 161.3,676.9 159,673.9 155.5,673.9 154,671.8 148.8,673.7 144.3,670.7 139.2,669.4 
	134,667.3 127.7,663.9 120.6,663.8 114.7,666.5 108.6,666 102.5,671.4 96.8,673.3 92.9,673.6 88.2,666.7 83,665.7 81.6,659.2 
	77.9,653.8 79.2,652.6 82.4,655.3 83.2,653.2 78.8,649.8 78.9,647.4 80.8,644.5 78.3,638.1 69.1,628.1 62.4,624.1 "/>
<polygon id="portugal" class="portugal" points="58.8,624 56.3,623.9 53.5,626.7 47.4,626.6 42.8,621 37,619.2 31.1,615.5 20.8,616.2 
	32.7,597 33.2,590.2 38.7,583.1 39.5,576.3 31.9,574.8 30.4,571.1 31.7,567.1 30.5,563.1 29.9,559.2 34.3,554 35.8,548.4 
	43.5,540.1 63.7,510 70.5,481.5 78.2,477.3 88.1,476.8 86.3,479.5 86.4,484.1 90.5,486.9 95.9,486.5 102,491.7 110.6,491.9 
	118,494.5 117.1,503.3 121.5,506.2 122.6,509.9 117.8,515.7 110.6,516.4 104.3,520 102.7,532.8 99.3,536 93.9,537 93.9,544 
	90.6,552.9 85,554 81.3,552.9 81.5,568.4 83.9,571.8 83.9,575.3 79.2,577.9 74,587.4 73.1,595.7 76.6,597.4 78.3,600.3 75.6,602.5 
	71.3,602.2 66.4,605.8 59.5,614.9 "/>
<polygon id="suisse" class="suisse" points="416.7,448.3 412.1,444.5 427.9,425.4 432.5,421.9 437.4,421.9 442.8,416.9 438.2,414 
	442,408.6 448.6,411.4 456.3,409.4 459.1,410.9 463.3,410.7 468.2,410.1 472.4,413.5 474.9,413.4 476,404.9 478.9,404.1 
	485.3,408.2 491.7,411.1 497.4,418.1 497.6,420.8 492.3,427.1 494.3,432.9 497.8,432.9 501.4,438 507.6,437.6 508.6,440.8 
	507.5,444.2 507.7,448.4 504.7,449.7 500.9,448.7 500.5,454.8 496.3,453.9 491.2,453 486.4,448.1 484.2,450.4 482.8,456.4 
	475.6,464.3 465.3,452.3 466.2,446.8 459.2,451.6 455.2,459.2 450.3,459.5 447.1,457.4 439.3,458.7 434.5,457.4 433.2,448.2 
	432.5,442.1 427.4,440.9 422.4,442.5 "/>
<g id="italie">
	<polygon class="italie" points="434.6,457.4 439.3,458.7 447.1,457.4 450.3,459.5 455.2,459.2 459.2,451.6 466.2,446.8 465.3,452.3 
		475.6,464.3 482.8,456.4 484.2,450.4 486.4,448.1 491.2,453 500.5,454.8 500.9,448.7 504.7,449.7 507.7,448.3 507.5,444.2 
		508.6,440.7 514.6,435.5 523,437.3 526.8,433.9 545.9,433.9 549.1,435.8 549.4,444.6 555.8,449.9 560.7,449.9 569.1,454 
		575.6,454.8 580.6,461.5 574.3,463.7 574.6,475.8 579.6,481.5 578.3,486 573.9,480.9 568.5,481.8 564.9,479.7 562.8,480.8 
		563.4,485.4 557.3,485.3 549.8,488 550.1,483.5 541,489.3 541.9,494.3 548.5,498.4 546.2,504.5 541.3,506.6 542.7,525.4 
		561.6,545.4 570,546.9 573.5,557.6 572.9,572.4 585.4,589.2 594.9,595.6 609.4,599.7 623.1,599.4 623.4,604 616.7,610.7 
		661.1,636.5 671.2,647.2 674.1,656.8 671.5,662.9 666.3,660 664.3,653.9 658.6,650.1 645.9,648.4 645.9,644.9 639.9,644.9 
		630.6,658.1 628.3,666 632.4,669.9 637.6,669.9 643.9,676.2 643.9,688.7 639.7,691.3 636,689.3 628.9,693.7 628.9,708.2 
		625.1,709.3 620,715.4 618.4,722.1 606.9,720.3 606.9,711.9 614,703.2 611.3,699.7 616.1,695.9 621.9,695.9 621.9,689.3 
		616.9,684.4 616.9,675.7 611.9,671.6 611.9,661.2 607,655.7 601,658.9 596.9,658.9 596.9,652.8 590,648.7 591.7,644.1 588,637.4 
		579.3,638 582.7,634.5 580.1,631.9 571.9,631 571.9,627.2 569.2,621.1 562.7,615.9 556.1,615.9 552.1,617.7 545.7,610.9 
		528.9,590.5 520,578.1 513.5,577.8 511.5,575.4 514.5,573.7 511.6,569.2 504,561.2 500.9,560.8 499.2,558.9 500.8,552.5 
		492.9,539.3 492.9,528.7 489.7,521.4 484.2,521.9 478,513.9 474.2,513.9 471.1,509.9 463,509.9 453.7,515.3 448.1,522.2 
		438.8,524.9 435.9,525.1 436,518.1 437,514.6 435,511.3 429.6,509.8 426.7,506 425.2,497.1 429.5,492.4 429.6,489.1 424.9,484.8 
		424.9,478.9 428.7,478.1 432.7,474.9 434.4,471.8 430.9,463.9 430.9,458.7 434.6,457.4 	"/>
	<polygon class="italie" points="605,709.4 599.3,709.5 592.3,714.4 587.1,711.5 565.3,717.3 560.2,716.3 556.5,709.7 546.5,704.3 
		544.4,710.9 540.5,710.1 537.4,705.3 530.4,712.4 530.8,721.9 538.8,725.7 542.8,729.9 547.7,729.9 550.9,734.7 557.3,735.6 
		563.1,740.9 572.6,742 575.7,745.7 577.6,751.9 584.2,752.4 588.3,753.4 590.8,756.9 596.6,748 594.6,743.3 595.2,740.6 
		591.4,733.1 600.4,719.8 604.7,712.6 	"/>
</g>
<g id="uk">
	<polygon class="uk" points="217.2,267.9 219,264.9 226.8,264.7 234.1,259 247.1,252 249.3,249.6 255.1,249.9 253.5,246.2 
		261.5,247.3 271.1,251.3 275.7,253.1 277.8,249.6 285.5,246 293.7,241 294.6,238 285.3,242.7 278.8,243.1 274.1,245.6 268.3,244.2 
		265.2,239.1 263.9,233.3 255.8,228.8 250.7,229.2 247.3,231.2 242.7,229 240.8,224.3 242.7,221 242.6,216.6 248.1,216.4 
		254.6,217.1 262.1,215.1 268,212.7 270.4,206.1 274,199 261.6,198.1 262.5,193.1 271.7,190.2 267.2,185.1 270.5,180.4 277.5,188.2 
		286.2,189.6 293.8,192.4 298.9,195.5 299.5,191 296.5,185.4 299.7,181.3 302.8,180.2 301.4,176.4 306.3,174.5 308.3,168.7 
		303.1,165.1 298.2,154.5 303.8,147.9 308.2,145.5 307.8,141.8 300.5,140.2 296.8,143.4 289.9,138.9 287.2,141.4 286.9,146 
		280.7,138.9 277.6,136.6 281.5,127.6 286.8,121.1 292,120.6 291,111.6 295,106.3 293.9,97.3 292,95.1 285.2,98.4 284.7,92.4 
		288.5,86.8 295.4,83.1 295.3,79.9 289,83 284.8,81.9 285.3,75.8 293.4,71.1 296.4,62.6 296.6,55.1 300.8,47.9 306.9,51 308.9,48.8 
		307,45 315.9,34.5 318.4,29.2 322.8,35.6 328.8,35.5 334.8,37.9 342.7,38.3 348,39.7 347.1,44.9 343.1,47 334.5,50.3 325.9,54.3 
		322.5,57 321,61.3 317.5,66.2 326.3,66.4 334.9,64.7 344.9,68.8 353.2,70.6 355.8,72.9 355.2,79.9 350.3,83.9 342.2,94.9 
		332.7,101.4 325.1,101.9 324.7,104.3 329.4,106.2 330.1,109.5 320.8,109.9 315.8,110.4 316.2,113.6 322,116.8 328,115.7 333.5,121 
		339.2,130.8 338.2,143.8 338.5,163.7 348.1,170.2 352,182.4 351,192.1 352.4,196.6 343.3,192.6 341.4,194.8 349.3,198.7 
		352.2,211.3 351.8,216.1 344.1,220.6 346.9,223.8 351.2,225.3 359.3,222 366.4,225.5 371.9,232.3 371.4,244.4 365.2,252.3 
		356.9,255.9 353.2,257.1 352.8,261 349.7,263.7 343.9,263.6 343.8,267 346.9,269.3 356.1,269.1 356.7,274.8 352.5,279 345.1,281.9 
		334.5,283 327.8,282.8 324.8,278.7 313.2,279 314.3,275.7 312.3,273.6 302.4,272.7 294.6,274 289.6,271.3 289.5,274.4 291.1,277.4 
		283.5,274.9 278.1,274 275.3,268.4 269.3,267.4 263.5,265 258.5,271.8 254.2,276.2 243.8,271 235.7,269.2 227.9,269.4 224,271.7 
		221.7,271.8 221.1,267.6 	"/>
	<path class="uk" d="M186,205.4l-8.3,0.1l-8.3-4.1l-9-0.2l-0.9-2.5l5.3-0.7l1.2-2.2h-8.6l-1-2.2l4.5-1.2l0.1-1.7l-4.7-0.8l-1.7-4.4
		l3.3-2.7l4.5-1l0.7-2.5l-7.8-2.2l-0.6-2.3l6.7-0.8l7.3,3l2.3-4.6l1.2-4.8l7.2-1.6l7.5-6.2h5.9l-0.1-3.8l-8.1-3.8l-6.4-6.7l1.3-5.4
		l5.1-1.3l2.8-3.6l2.2-1.1l-6-4.7l-2.5-2.7l3.3-4.3l4.6-1.7l7.6,0.2l4.5,3.7l3.3,2.2l8.8-0.9l9.6-0.3l1.1-1.3l-8.3-4.9l-0.9-3.7
		l6.4-1l7.7-6.9l10.4-0.5l-0.6,4.7l0.7,2.2l3.9-5.3l3.6-2.1l1.8,4.3l-5.1,4.3l13.1,0.6l5.4,1.2l2.5,14.1l-1.7,3.1l4.8,0.6l-0.2,6.8
		l-5.6,2.1l-1.9,3.9l-2.5,3.9c0,0-4.4-0.8-5.4-0.8c-1,0-5,0.4-5,0.4l-0.2,6.4l-1.7,10.6l-3.7,13.5l-11.8,15.1l-0.2,6.4l-2.5,1
		l-5-2.9l-9.3-1.5l-7-2.7l-3.9,3.5l-2.7-1.4l-5.2,3.7l-3.7-2.1L186,205.4L186,205.4z"/>
</g>
<polygon id="france" class="france" points="237.7,489.2 245.2,480.2 253.2,462.3 256.1,450 260.4,440.5 265.3,421.8 270.6,408.4 
	268.2,404.9 258.8,396.4 255.6,388.3 257.9,380.7 261.2,373.5 252.3,372.4 251.4,367.3 254.5,365.7 254.8,363.3 246.6,360.2 
	250.8,358.3 245.8,356.7 242.2,357.5 243.1,351.4 236.1,349.4 235,344.4 229.7,344.1 226.6,338.3 221.9,341.8 218.4,337.5 
	219,332.8 223.9,331.7 223.9,327 215.9,325.3 215.9,320.1 223.1,316.9 228.7,318.9 235.2,317.2 235.8,320.6 242.8,321.5 246.9,316 
	254.4,319.5 256.7,332.8 264.8,330.8 273.8,333.7 284,338.3 282.8,324.1 281.7,311.6 278.8,300.6 287.5,304.4 295.3,305.3 
	293.6,309.6 293.9,316.9 303.1,318.6 309.8,324.1 330.4,324.7 321.7,321.5 319.7,316.6 328.4,313.7 343.7,311.9 352.7,305.3 
	359.1,286.1 369.8,285.8 380,283.8 380.1,287.8 377.6,290.8 379.3,295.8 383.2,296 387.3,295.4 388,298.7 387.3,302.9 393.1,308.5 
	396.6,313.8 401.3,315.3 401.5,323.8 404.4,326.6 410.2,322.1 413.1,324.7 412.8,329.9 419.4,337.5 422.6,342.1 430.8,342.8 
	434.3,346.7 442.9,347.1 450.3,355.2 455.1,356 462,363.2 470.9,364.6 475.9,368.3 465.7,382.4 458.3,396.9 456.3,409.3 
	448.6,411.4 442,408.5 438.2,413.9 442.8,416.9 437.4,421.9 432.8,421.9 427.9,425.4 412.1,444.6 416.7,448.4 422.4,442.5 
	427.4,440.9 432.5,442.1 434.5,457.4 430.9,458.7 430.9,463.9 434.5,471.8 432.8,474.9 428.7,478.1 424.9,478.9 424.9,484.8 
	429.6,489.1 429.4,492.4 425.2,497.1 426.7,506 429.6,509.8 435,511.3 437,514.6 436,518.1 435.9,525.1 429.7,525.7 423.1,530.1 
	414.5,532.8 413.2,536.7 396,537.9 392.2,533.9 387.5,533.9 385.4,528.1 380.9,527 377.4,524.8 373,525.5 370.9,521.5 362.5,518.2 
	359.7,514.1 349.5,520.1 344.8,520.8 337.7,527.3 336.2,526.4 334,528.3 335.9,532.1 335.6,544.6 330.5,541.7 319.7,541.4 
	317.9,538.7 309.9,538.9 304.9,535.9 304.9,531.2 302.6,527.7 297.6,526.9 297.2,523.8 293.9,522.7 282.5,515.6 280.9,520.7 
	272.5,518.7 265.5,518.2 260.8,511.3 253.9,510.3 253.9,506.9 247.1,501.6 246.4,496 241.9,495.3 241.9,491.8 "/>
<polyline id="allemagne" class="allemagne" points="409.9,285.8 416.5,282.3 426.2,283.8 437.6,298.6 440.1,308.7 443.3,316.8 
	438.9,326.1 438.9,334 444.3,339.1 442.6,343.3 442.8,347.1 450.2,355.2 455.1,356 462,363.2 470.9,364.6 475.9,368.3 465.7,382.4 
	458.3,396.9 456.3,409.3 459.1,410.9 468.2,410.1 472.4,413.5 474.9,413.4 476,404.9 478.9,404.1 491.7,411.5 497.4,418.9 
	501.2,418.9 509.2,425.9 514.4,425.7 514.6,419.4 517.7,418.1 522.6,423.7 529.7,423.8 545.4,421.7 549.2,417.3 553.5,417.8 
	559,419.6 562,423.5 565.7,422.8 565.5,417.1 562.3,410.1 560.9,404.4 573.5,403.6 576.4,396.7 579.6,394.5 584.4,394.7 
	584.7,388.7 586.1,387.8 583,381.3 577.4,375.9 576.6,369.6 561.9,355.2 562,345.1 558.3,342.6 568.2,334.2 575.8,332.5 
	591.7,324.6 598.6,322.8 602.8,320.2 608.1,324 608.7,320.8 613.9,314.3 613.9,307.3 611,299.1 610.8,282.3 608.3,277.8 611,275.7 
	610.9,271.4 601.5,264.8 607.3,256.9 607.2,249.8 604.4,239.5 597,235.7 597.6,232.1 597.3,227.3 595.5,224.7 592.7,226.5 
	584.1,218 575.2,222 571.1,221.1 569.6,223.2 559.7,223.4 555.9,226.9 551.6,225.8 547.9,226.4 543.5,225 545.3,222.9 548.8,222.9 
	551.9,220 552.3,214.9 555.8,214.9 555.7,211.9 552.1,209.2 546.1,215.3 542.5,214.7 540.2,211.7 536.1,211.9 532.2,208.4 
	533.5,204.6 529.5,196.1 524.4,197.8 520,197.1 516.5,190.1 510.5,191.5 510.1,198 512.5,204.4 512.8,208.9 507,208.9 506,211.8 
	510.9,213.3 510.9,218 513.7,223.4 522.5,228.8 521.7,232.3 518.6,230.3 513.4,225.7 505.5,224.1 502.4,226.7 500.7,230.5 
	497.4,232.7 496.6,237.1 492.9,234.4 495.4,229.6 493.1,226.5 479.2,226.3 476.2,230.9 476.3,236.2 478.3,238.1 476,241.2 
	468.6,232.7 463.5,232.2 458.2,235.5 457,231.2 446.4,232.3 442.9,236.5 443.7,242.9 446.9,245.2 446.4,249.6 443.4,254.6 
	444.1,257.1 441.8,259.3 435.8,256.8 434.8,251.3 439.2,248.4 439.9,245.2 438,244.1 437.9,239.1 433.9,239.6 430.6,237.7 
	427.3,242.8 426.7,252.2 411.8,268 418.6,273.3 418.9,275.9 410.7,275.9 409.9,285.8 "/>
<polygon id="luxembourg" class="luxembourg" points="430,342.8 428.9,337.7 428.9,330.5 436.9,325.3 438.9,326.1 438.9,334 444.3,339.1 
	442.6,343.3 442.8,347.1 434,346.7 "/>
</svg>
