<?xml version="1.0" encoding="utf-8"?>
<!-- Generator: Adobe Illustrator 20.1.0, SVG Export Plug-In . SVG Version: 6.00 Build 0)  -->
<svg version="1.1" id="romandie" xmlns="http://www.w3.org/2000/svg" xmlns:xlink="http://www.w3.org/1999/xlink" x="0px" y="0px"
	 viewBox="0 0 709.9 674.6" style="enable-background:new 0 0 709.9 674.6;" xml:space="preserve">
<style type="text/css">
	.st0{fill:#8DC6A4;}
	.st1{fill:#06602C;}
	.st2{fill:#ED7569;}
	.st3{fill:#F7B1AA;}
</style>
<polygon id="jura" class="st0" points="272.7,155.9 270.9,154 266.9,153.3 266.4,150.7 268.9,149.2 273.6,148.7 275.8,142.9 
	286,134.6 295.2,123.2 294.5,114.9 292.7,111.8 292.6,106.8 294.3,105.1 304.2,105.3 308.9,103.6 310.9,99.9 311.8,94.8 314.9,93.2 
	322.7,93.2 322.3,84.2 319.4,79.2 314.5,75.8 309.3,75.3 305.1,79.3 292.4,80 288.3,82.2 284.9,82.2 281.2,81.2 278.5,82.8 
	276.5,82.4 275.7,77.3 277.4,73.9 280,71.6 283.1,70.9 284.6,65.3 288.8,62 292.7,60 292.8,52.4 298,50.5 301,47.4 302.1,45.4 
	307.8,45.2 308.4,40.8 305,36.7 304.8,28.6 308.8,25.4 317,25.5 326.3,30 330.9,29.9 338.8,26.2 344.9,26.2 352,30.1 356.6,29.7 
	359.4,28.2 360.4,28.2 360,30.6 353.7,37.9 353.6,48.3 358.6,48.7 361.5,50.7 363.7,51 364.4,50.2 368.2,50.2 370.6,53.4 
	371.6,56.2 373.4,56.5 375.9,54.6 382,52.2 388.2,49 392.6,49.5 394.4,53.3 399.1,55.2 403.3,59.2 406.6,59.6 411.2,64.2 
	415.3,65.9 416.3,72.4 423.9,72.7 428.2,75.3 432.1,76.3 435.8,76.1 439.6,73.7 443.5,74 443.8,77.6 445,78.4 445,82.3 449,85.6 
	451.5,85.6 446.3,89.8 444.4,92 444.9,94.1 447.9,94.7 447.1,96.5 441.7,98.1 437.5,100.6 432.4,101 429.8,99.3 420.2,99.4 
	416.4,99.4 414.6,97.5 411.2,97.6 410,96.4 404.8,96.6 401.9,99.5 395.9,100.3 391.2,105 388.4,107.2 384.8,107.5 376.4,107.4 
	363.8,106.8 362,104.6 351.4,104.7 351.3,108.4 350.7,112.6 346.5,115.1 345.2,118.7 347.3,120.2 347.4,122.6 344.8,124.7 
	337.9,124.4 336,123.5 333.4,125.5 330.1,125.9 328.4,124.5 324.8,124.6 322.9,127.1 322.6,130.1 318.6,132.7 315.4,140.8 
	312.5,144 307,143.9 306.2,148.3 303.2,151.1 300.2,150.7 297,146.4 293.8,146.9 286.3,155.5 281.2,158.9 277,158.7 275.1,154.2 "/>
<polygon id="vaud" class="st1" points="296.9,288.9 298.3,292.9 295.6,298.6 291.4,300.6 290.4,304.7 284.6,310.3 284.9,313.2 
	288.8,313.2 291.3,314.4 291.5,319.6 280.9,328.2 280.1,334.5 277.1,338.2 272.7,338.2 271.4,339.1 273.6,342.5 271.7,347.9 
	269,349.5 266,348.2 261.9,348.2 261.5,351.8 259.2,351.8 257.1,350.5 253.9,356.6 256.5,359 256.4,374.3 254.9,375.6 254.8,378.4 
	256.4,378.7 258.6,375.6 260.5,376 261.1,379.3 262.8,379.8 264.9,377.6 267.4,375.6 271.8,377.3 273.9,381.3 276.5,382.1 
	280.2,380.2 282.5,384 276.9,387 274.7,391.3 269.9,391.4 268.9,393 265.2,393.5 262.4,391.5 259.7,395.4 259.4,400.1 267.7,410 
	270.9,410.4 281.2,400 282.2,404 286,403.7 290.1,405.6 295.8,406.2 300.2,408.7 300.3,412.1 303.1,414.7 301.5,417.8 299,419 
	299,422.1 302,424.6 302,427.6 302.5,428.6 302.8,430.9 306.1,431 312.6,426.4 312.6,421.7 323.7,411.9 336.5,411.2 343.9,403.6 
	345,397.5 349.3,397.2 355.6,391.2 358,390.6 360.1,393.9 361.6,394.7 369.2,387 368.6,390 369,396.8 369,406.3 365.1,412.3 
	366.5,417.7 367.3,426.6 364.1,430.6 359.1,430.3 358.5,432.6 361.7,437.9 362,445.2 359,448.9 358.2,452.4 361.5,454.8 
	362.9,458.6 365.9,458 365.1,459.6 362,463.5 362,471.8 354,480.8 354,484.4 355.3,487.2 354,489 354,493.9 353.5,495.3 
	344.4,506.5 339.4,508.2 338.7,514.2 330.5,520 326.9,520.3 322.4,523.9 317.2,525.4 309.7,516.7 305.4,504.2 299.2,496.9 
	296.1,489.6 287,483.5 287,472.1 284.8,468.3 279.5,468.2 275,463.5 275,453.3 270.9,448.6 271.9,447.6 287,447.2 288.2,444.7 
	289.8,442.1 288.6,438.3 287.2,434.6 284,433.5 280.3,430.2 276.3,430.2 269.3,425.2 262,425.2 262,420.7 257.8,419.1 251.5,417.5 
	245,415.7 241.5,411.9 239.3,413 233.6,412.2 224.7,407.3 216,406.2 207.6,404.8 201.5,402.2 198.3,402.2 195.4,404.3 191.5,405.1 
	187.1,402.9 180.4,402.1 173.6,407.9 169.4,412.1 164,416.8 155.6,421.7 149.9,422.5 145,420.5 137.6,422.1 125.5,434.4 119,436.8 
	119,440.3 118,442.3 118,447.3 117.3,449.2 113.8,448.1 105.9,457.9 100.4,468 98,477.1 92.3,485.4 82.6,480.1 79.5,475.7 
	83.2,472.6 83.3,469.2 85.2,466.6 90.4,459.7 88.6,455.2 79.2,448.1 64.3,438.6 68.8,432.1 69.6,428.5 65.5,423.1 69.8,419 
	73.2,413.6 77.1,402.8 87,395 87.8,389.3 75.7,378.9 95.6,360.8 116.9,341.1 121.5,335 141.5,323.1 149.4,318.6 151.9,312.6 
	162.8,307.7 165.6,300.1 162.2,294.7 160.9,285.7 166.2,274.5 172.9,276.3 182.9,272.1 194.3,263.5 201.4,261.8 211.2,259.1 
	219.4,249.7 234.9,241.9 236.7,243.3 234.6,246.5 234.8,253.3 239.7,256.5 240.4,263.4 250.1,273.8 239.7,283.1 249.7,293.1 
	252.5,298.3 256.5,299.7 260.6,302.1 266.1,301.6 269.5,299 272.7,301.9 280.8,302.2 289.3,294.1 290.4,291.1 "/>
<polygon id="valais" class="st2" points="254.5,545.9 252.8,534.8 256.5,530 256.5,515.7 259.1,512.6 259.1,507.9 268.5,499.4 
	270.4,493.2 270.4,489 265.1,485.5 261.2,477.9 255.5,475 254.1,471.5 251.8,469.7 247.8,462.1 250.1,458.2 257.2,453.6 
	256.4,449.3 258.2,447.9 263.2,450.7 269.5,450.5 270.9,448.6 275,453.3 275,463.5 279.5,468.2 284.7,468.3 287.7,472.1 
	287.7,483.5 296.1,489.6 299.2,496.9 305.4,504.2 309.7,516.7 317.2,525.4 322.3,523.9 327,520.3 330.6,520 338.7,514.2 
	339.4,508.2 344.4,506.5 353.5,495.3 354,493.9 354,489 355.3,487.2 354,484.4 354,480.8 362,471.8 369.7,472.9 373.7,470.5 
	373.7,462.4 377.7,459.6 384.3,458.5 386.5,455.1 387.6,454.3 387.6,457.9 387.7,459.4 388.5,466 398.1,464.7 407.1,458.6 
	416.6,452.9 422.4,451 426.7,453.3 427.7,455 431,452.1 433.8,452.3 434.8,456.4 437.8,457.1 440.2,454.7 442.7,454.3 444.8,455.7 
	446.7,454.2 446.7,452.3 450.5,450.1 447.7,446.8 445.6,445.2 449.2,442.6 456,442.6 459.5,440 461,441.8 464.1,438 464.1,432.3 
	470.1,428.7 481.1,433 488.6,437.6 492.3,440.5 495.5,438.5 496.4,436.5 503.6,434.4 512.5,426 515.6,422.5 522.4,421.7 
	528.1,418.2 538.3,418.2 547.1,413.1 550.8,406.9 554.9,406.9 559.2,402.3 561,400 557.8,395.9 559.5,392.2 563.7,391.2 571,386.1 
	578.3,386.1 585.3,389.6 591.6,389.6 598.7,392 607,397.4 613.7,396.7 615.3,400.2 623.1,397.4 636.9,396.8 652.4,385.3 
	655.1,384.7 658.7,379.4 658.7,370.1 661.3,366.2 661.3,359 669.5,353.3 674.4,349.3 677.9,351.5 676.8,356.9 678.1,364 
	674.8,370.4 674.6,378 678.1,384.7 679.2,390.4 687.2,395.4 692,397.6 689.1,403.5 683.8,408.9 675.9,410.4 671.3,409.6 
	669.2,417.5 668.5,422.2 668.4,425.8 663.7,426.9 657.3,431.9 652.9,435.5 647.7,436.2 644.2,440.7 645.6,444.3 650.1,445.8 
	649.9,453.5 641.3,459.8 637.8,458.7 636.6,462.2 636.7,465.7 627.2,469.6 622.8,480.4 614.1,484.9 608.4,485 604.4,482.1 
	600.9,485.1 596.7,491.2 589.8,496.7 591.6,501.8 597.4,503.1 604,514.4 607.8,521.4 608.5,525.3 610.9,528.1 607.3,535.7 
	608.8,540.3 607.8,543.8 603.4,545.3 599.1,546.7 596.9,553.1 591.6,554.7 577.8,559.3 577,564.4 574,568.2 574.9,574.9 
	576.7,579.7 572.1,582.8 571.6,590.7 567.4,595.1 565.3,600.7 562.7,600.7 560.3,597.4 551.9,596.7 543,598.8 539.4,604.6 
	535.3,607 535.1,618.4 532.8,620.2 535.3,624.2 533.1,627.7 527.3,625.7 522.6,622.5 517.3,625.8 513.4,625.4 509.1,620.6 
	502,618.6 497.8,624.9 495,624 491.7,614 484.9,612.9 483.4,606.3 476.9,605.4 461,606.3 458,600.6 450.6,602.2 449.3,610.8 
	445.3,611.7 437.7,610.8 430.7,614.9 430.5,622 422.5,621.5 416.8,628.8 411,632.9 409.6,636.3 404.9,636.3 398.2,629.3 395,628.4 
	392.4,629.7 389.3,627.2 383.2,626.6 378.1,634.8 373.6,638.2 365.7,637.1 361.3,640.4 358.9,648.1 349.5,641.3 345.2,642.9 
	337.5,650.2 333.8,650.2 327.9,637.4 324.3,633.4 324.1,629.9 318.1,625 317.4,613 312.7,610.7 309.9,607.9 311.5,605 313.5,603.2 
	307.7,595.7 304.2,594.7 304.3,590 292.4,575.7 291.7,571.5 286.5,574.2 280.4,579.5 276.3,578.9 274.4,572.8 278.2,566.5 
	278.2,563.5 276.7,561.1 278.8,558.1 280.6,551.1 277.8,549.3 270.4,549.2 265,546.9 259.2,547.1 "/>
<polyline id="neuchatel" class="st3" points="166.2,274.5 166.8,256.9 160.6,245 176.2,227.9 180.7,229.4 198,225.1 202.3,221.9 
	210.4,221.9 214.8,212.7 214.8,206.8 224.7,205.4 228.2,205.4 234.1,199.3 227.5,191.6 230.4,190.1 231,186.3 237.3,186.3 
	237.3,174.5 256.9,165.8 271.5,156 278.3,168.4 274.7,177.5 273.3,184.9 295.4,174.2 312.5,169.3 317.7,168.6 314.1,174.5 
	314.9,176.9 319.6,176.4 326.8,181.6 326.8,185.6 326.8,191.2 329.3,194.3 327.9,198 317.2,202.9 315.7,210.3 313.9,215.3 
	317,225.5 309.1,222.5 289.4,235.7 250.1,273.8 240.4,263.4 239.7,256.5 234.8,253.3 234.6,246.5 236.7,243.3 234.9,241.9 
	219.4,249.7 211.2,259.1 194.3,263.5 182.9,272.1 172.9,276.3 166.2,274.5 "/>
<polygon id="fribourg" class="st2" points="323.1,226.7 316.4,225.4 309.1,222.5 304.1,225.7 289.4,235.7 272.6,251.4 250.1,273.8 
	239.7,283.1 249.7,293.1 252.5,298.3 256.5,299.7 260.6,302.1 266.1,301.6 269.5,299 272.7,301.9 280.8,302.2 289.3,294.1 
	290.4,291.1 296.9,288.9 298.3,292.9 295.6,298.6 291.4,300.6 290.4,304.7 284.6,310.3 284.9,313.2 288.8,313.2 291.3,314.4 
	291.5,319.6 280.9,328.2 280.1,334.5 277.1,338.2 272.7,338.2 271.4,339.1 273.6,342.5 271.7,347.9 269,349.5 266,348.2 
	261.9,348.2 261.5,351.8 259.2,351.8 257.1,350.5 253.9,356.7 256.5,359 256.4,374.3 254.9,375.6 254.8,378.4 256.4,378.7 
	258.6,375.6 260.5,376 261.1,379.3 262.8,379.8 264.9,377.6 267.4,375.6 271.8,377.3 273.9,381.3 276.5,382.1 280.2,380.2 
	282.5,384 276.9,387 274.7,391.3 269.9,391.4 268.9,393 265.2,393.5 262.4,391.5 259.7,395.4 259.4,400.1 267.7,410 270.9,410.4 
	281.2,400 282.2,404 286,403.7 290.1,405.6 295.8,406.2 300.2,408.7 300.3,412.1 303.1,414.7 301.5,417.8 299,419 299,422.1 
	302,424.6 302,427.6 302.5,428.6 302.8,430.9 306.3,431 312.7,426.4 312.7,421.7 323.7,411.9 336.5,411.2 344,403.6 345,397.5 
	349.3,397.2 355.6,391.2 358,390.6 360.1,393.9 361.6,394.7 369.2,387 379.5,379.8 381.9,375.4 385.6,377.7 386.6,376.7 
	388.5,372.8 388.5,362.3 387,359.9 387.7,356.4 393.2,355.8 394.4,353.4 391.5,350.3 392.5,348.5 397.2,349.8 400.7,354.4 
	402.5,352.5 402.9,349.7 406,347.6 404,345.5 404.3,340.4 406.8,335.6 402.7,332.2 399.2,331.8 399.1,328.8 397.2,325.7 
	387.8,325.4 384.7,319.2 384.9,315.9 386.8,314.4 386.7,308.3 383.6,304.5 383.5,302.7 387.3,299.3 387.7,291.7 391.4,286.9 
	391.8,283.4 393.9,280.9 392.6,278.9 386.3,274.5 392.5,270.4 394.2,274.1 396,275.1 400.2,272 400.5,266.1 399.5,260.2 
	391.1,258.8 377.5,257.7 370.9,256 368.5,254.2 365,254.3 361,254.7 361.1,246.7 364.3,245.1 366.7,245.9 368.8,244 368.5,240.9 
	364.3,240.5 362.2,241.9 360.8,240 362.9,236.8 362.6,233.1 361.6,229.7 367.3,224.9 367,220.3 365.6,216.1 364.3,213.8 
	360.9,214.3 351.6,220.5 341,224 330.4,225.6 "/>
<polygon id="geneve" class="st2" points="47,528.7 43.6,523.6 39.2,520.1 41,515.4 49,513.5 52.5,510.3 56,510.3 58.2,510.6 
	62.8,504.2 65.5,505.1 69.7,503.9 72.5,507 77.5,502.6 77.5,497.9 74,495 74,487.2 77.9,484.6 77.6,477.8 79.4,475.7 82.6,480.1 
	91.1,485.4 88.8,491.2 88.8,495.7 84.5,503.6 84.5,520.1 91.8,513.6 95.7,506.2 95.7,496.8 102.2,495 104.9,488.3 107.9,485.7 
	107.9,481.2 109.6,482.9 109.6,486.8 108.2,490 109.7,493.2 116.1,501.2 119,502.1 123,497.2 124.4,501.5 124.4,509 114.9,516.5 
	111.3,519 105.4,519.4 95.8,528.7 95.6,533.9 83.4,541.8 78.3,543.8 73.4,541.7 71.1,539.7 61.9,540.5 58.7,545.9 56,545.9 
	53.7,543.2 46.5,542.6 41.2,544.3 35.8,544.9 35.8,541.3 39.9,537.6 41.6,530.7 44.8,530.3 "/>
</svg>
