<?xml version="1.0" encoding="utf-8"?>
<!-- Generator: Adobe Illustrator 20.1.0, SVG Export Plug-In . SVG Version: 6.00 Build 0)  -->
<svg version="1.1" id="suisse" xmlns="http://www.w3.org/2000/svg" xmlns:xlink="http://www.w3.org/1999/xlink" x="0px" y="0px"
	 viewBox="0 0 720.8 498.4" style="enable-background:new 0 0 720.8 498.4;" xml:space="preserve">
<style type="text/css">
	.st0{fill:#AF2B19;}
	.st1{fill:#EA897F;}
	.st2{fill:#D84839;}
</style>
<polygon id="romandie" class="st0" points="222.1,135 223.1,137.5 226.1,139.3 226.1,142.1 230,142.1 233,144.4 235.4,144.9 
	235.4,148.3 239.6,148.5 243.3,150.2 246.9,150.6 249.6,149.1 251.8,149.5 251.9,151.8 254,152.7 253.5,154.7 255.1,155.7 
	256.5,156.2 254.3,158 251.8,159.7 253,161 254.6,161.6 250.2,163.4 247.4,165.9 245.1,165.9 243.1,164.2 236.6,164.2 234.2,162.9 
	233,162.8 229.5,162.3 227.9,163.9 223.6,165 220.1,168.1 218.4,168.5 213.4,168.8 205.9,168.3 204.8,166.6 199.1,166.7 
	198.9,168.8 198.6,171.2 196.6,172.2 195.7,174 196,175.5 196.9,175.6 195.4,177.8 191.5,177.8 190.1,177.6 188,179.5 186.5,179.5 
	185.7,178.2 183.2,178.8 182.8,180.8 180.3,183 179.5,186.6 176.9,189.7 174.5,189.7 172.5,190.1 172.5,191.8 172,193.1 
	170.1,193.1 168.2,191.1 166.4,190.9 163.2,194.6 160.9,196.9 158.8,198.2 156.8,198.2 155.5,194.1 153.6,195.5 157.7,202.6 
	157.3,205.3 155.4,207.6 154.6,210.2 154.7,212.4 160.6,209 166.8,206.2 171.7,205.8 174.6,204.2 177.9,203.4 179.4,203 
	179.5,204.5 178.1,206 178.4,208 181.5,207.4 183.4,209.1 186.4,210.6 186.5,213.1 185.9,215.7 186.9,217.4 186.4,219.4 
	183.9,221.1 180.7,221.7 179.2,224.6 179.3,228.5 177.8,229.5 178.4,232 179.5,233.8 180,235.3 183,236.2 188,235.1 193.9,234.5 
	198.6,233 202.1,230.8 205.3,228.7 206.8,229.1 208,233.4 207.9,235.5 205.7,238.4 205.7,240.4 205.3,244.3 207.8,243.7 
	208.8,244.1 208.3,247.5 206,247.5 204.6,249 204.7,252.6 207.3,252.6 211.1,253.3 215.2,253.5 220.5,253.5 220.9,254.3 
	225.2,254.7 226.4,255.7 227,260.4 225.4,262.8 223.2,263.3 222.1,261.1 219.8,262 219.3,263.6 222,265.2 222.9,267.3 222,269 
	220.8,271.3 218.4,273.1 218.4,277 216.9,280.1 218.7,282.5 218.8,286 217.8,287.9 219,291.1 220.6,292.6 224.3,292.6 226.5,293.6 
	226.2,296.1 228.7,296.7 230.2,297.8 229.4,300.2 229,303.8 228.9,305.9 227.5,308.3 225.1,305.6 221.4,305.7 223.3,308.3 
	222.5,310.5 220.5,310.5 220.6,313.4 221.4,313.8 221.2,319.2 219.2,322.4 218,322.4 216.6,320.9 213.5,324.3 209,327.2 210.4,331 
	210.9,337.6 207.1,341.8 208.1,347 207.7,351.5 205,353 202.9,353 205.7,355.6 205.7,360.3 203.2,364 205.2,366.8 205.7,368.3 
	207.9,368.5 207,376.8 209.8,376.8 212.3,374.9 212.4,370.1 214.5,368.2 218.4,367.6 220.3,365.1 220.7,367.5 220.2,371.6 
	224.7,371.3 234,365.6 238.7,363.5 241.1,363.9 242.3,365.7 244.5,364 245.8,364 246.5,366.6 248.4,366.9 249.1,365.3 251.9,365.4 
	253.8,365.4 254.9,363.7 255.9,363.4 254.3,360.9 252.4,360 254.1,357.3 257.9,357.1 260.6,356.5 262.3,358.3 264.1,356.2 
	263.8,352.7 266.9,350.6 275.9,354.5 278.7,357.4 282.7,354.8 286.8,353.2 291.8,347.6 295.5,346.5 298.8,343.3 303.9,342.9 
	308.9,341.4 312,336.7 315.1,336.8 317.1,334.4 316.2,332.2 316.2,330 318.9,329.4 322.9,325.4 326.9,325.6 330.7,327.4 334.4,327 
	338.9,328.8 343.3,332.2 347.6,332.1 348.8,334.6 354.2,333 361.4,332.6 365.7,329.6 369.5,326.3 372,325.7 374,322.5 374,318 
	376.5,315.3 376.5,311 381.9,305.7 383.3,306.6 383.3,308.5 383.3,310.5 384,314 382.8,316.2 382.5,321.3 384.2,324.7 385,328.5 
	388.5,331.3 390.7,331.6 392.5,333.2 390.9,335.9 386.9,339.7 382.2,340.6 380.4,340.1 379.5,343.3 380.1,345.2 379.3,346.7 
	378.9,349.2 376.7,349.3 373.4,351.8 370.5,354.5 367.7,355 365.1,357.6 365.4,358.9 368.6,360.1 368.9,364.3 365.9,366.3 
	364.2,367.9 362.2,367.1 360.4,367.8 360.4,369.7 359.9,372.1 356.8,373.1 354.8,376 352.6,380.3 348.4,382.9 345.7,382.9 
	344.3,381.6 342.6,381.3 341.2,382.8 337.5,386.9 334.7,388.9 334.3,390.7 335.6,392.5 338,392.6 342.8,400.6 344.5,402.4 
	344.5,405.1 346.3,406.2 346.5,407.9 343.4,411.3 344.2,413.3 344.2,415.2 343,416.7 340.9,416.9 338.9,418.3 339.3,420.6 
	337.7,422.1 334.7,422.2 330.6,423.3 326.4,425.3 326.4,427.8 325.2,428.9 325.2,432.6 326.6,434.4 327.1,436.3 324.6,438 
	324.2,442.7 323.1,443.2 320.4,446.7 318.9,446.3 308.5,446.3 307.3,449.2 303.9,451.9 303.7,457.4 302.5,459.4 302.7,460.5 
	303.7,461.9 302.8,463.1 300.8,462.8 297.8,461.6 295.5,461.2 294,462.6 291.2,462.7 289.9,460.8 286.9,458.5 284.7,458.5 
	282.6,462 280.7,462.2 279.4,460.4 278.7,455.5 274.9,454.9 273.3,451.8 265,451.9 260.8,451.4 259.8,448.4 257.4,447.9 
	254.1,449.9 254.1,453 253.3,455.2 251.7,454.3 249.3,454.7 248.7,453.9 247.4,453.8 244.2,456.2 244.3,459.6 240.1,459.9 
	235.6,464.4 233.9,464.7 232.5,467.4 230.6,467.6 227.9,466.1 226,464.1 224.1,463.9 223.5,464.8 222,464.9 221.4,463.8 219.1,463 
	217.1,462.8 213.4,469 211.9,469.8 211.1,468.7 209.8,468.9 207.2,468.7 204.5,471 203.5,474.7 201.8,475.1 198,471.3 195.7,472.2 
	192.8,477.1 189.6,477.1 187.3,472.1 186.1,470.7 186.1,468.8 183.9,467.1 183.3,464.8 180.4,462.9 178.5,460 178.5,455.5 
	177.4,454.7 175.1,453.5 175.2,451.8 177.5,450.3 174.3,445.8 172,445.2 172.5,442.8 169.1,439.8 169.1,437.9 165.6,434.9 
	165.3,432.2 163.6,432.4 159.4,436.3 157.8,436.7 156.1,435.5 156,432.2 157.8,429.6 157.2,427.1 157.2,425.3 159.1,422.8 
	158.9,419.4 155.7,420.1 155.5,420.1 153,420.1 150.3,418.2 148,418.4 146.7,418.4 143.8,416.3 143.6,410.8 145.8,408.6 
	145.8,401.3 147.5,398.6 147.3,396.1 149,395.8 152.6,391.6 154,387.6 154.4,385.5 152.6,384 150.7,382.9 147.8,378.9 144.8,377.4 
	144.5,375.3 142.6,374.4 140.5,370.6 140.5,368.4 144.9,365.4 145.5,364.4 144.8,363 145.9,361.8 148,362.9 152.8,362.8 
	153.3,361.1 162.8,361.3 163,360.1 163.9,358.7 163.1,356.5 162.6,354.5 160.9,354.3 159.8,352.2 157.5,351.8 155.7,350.4 
	153.6,349.9 152.2,347.8 150.4,347.6 147,345.5 143.9,344.6 139.9,343.7 136.1,341.1 135.3,341.7 132.9,341.8 125.6,338.2 
	118.6,337.9 115.2,336.7 113.9,336 112,336 109.6,337.6 107.3,337.7 104.6,335.7 101.4,335.8 98,339.1 97,340.4 94.3,342 
	94.3,343.2 86.1,347.3 84.3,348.2 83,347.9 79.8,347.9 76.9,348.2 76.2,349 74.7,350.5 73.2,351.6 71,354.6 69.2,355.4 69,357.7 
	68,358.6 68.1,361 67.8,362.3 66,362.3 65,361.9 63.5,362.9 57.2,370.5 56.8,373.9 55.5,378.2 51.4,382.6 51.5,386.5 50.8,389.5 
	48.5,392.7 48.5,400.4 47.6,401.7 48.4,402.6 53.1,398.8 54.9,395.1 55.6,389.8 58.7,387.1 61.8,381.1 63.1,381.4 63,383.8 
	61.6,385.1 62.4,387.6 65.6,392.3 67.1,392.4 69.8,389.3 70.5,392.4 70.5,395.6 69.9,397.5 62.8,403.1 60.3,403.1 53.5,407.6 
	53.5,410.1 50.9,412.6 46.1,415.8 44.3,417 40.1,415.9 34.4,415.9 32.4,417.5 30,416.7 26.2,416.7 24.3,416.7 21.2,416.7 
	21.2,415.2 22.1,412 22.1,408.8 24.2,409.2 25.9,407.8 22.4,403.6 22.1,401.6 24.1,399.5 27.6,397 30.9,395.8 33,396.5 35.5,393.2 
	36.3,394.3 39.4,393.5 41.7,395.5 44.1,393.3 44.7,391.5 42,388.9 41.5,384.9 43.9,382.5 43.6,379.3 46.2,374.4 48.5,371.6 
	50.9,366.8 43.2,360.4 35.7,356.3 39.1,350.6 36.4,347.3 40.6,342.7 43.1,336 48.8,331 49.4,328.8 42.2,322.3 65.6,301.2 66,299.1 
	81,290.5 80.9,288.9 83.9,288.3 84.6,285.2 90.1,283.7 92.4,280.9 93.6,277.4 90.5,273.3 91.1,269.6 94,263.1 94.8,253.5 
	90.7,247.2 99.2,236.8 101.5,237.8 110.4,235.3 114.1,232.5 118.8,232.3 122.2,229.2 122.6,226.9 125.4,223.7 129.8,222.2 
	132.8,219.4 128.8,216.1 130.7,214.7 130.6,212.8 132,211.8 136,212 136,210.1 135.4,208 138.6,205.2 143.4,203.7 150.8,198.3 
	153.4,195.4 150.4,194.3 150.4,193.1 154.2,191.7 155.1,189.1 162.3,183.4 166.8,177.4 165.6,170.9 166,167.4 171.9,166.9 
	175.7,164.7 177.1,159.2 182.3,159.4 182.6,155.5 180.4,151.6 176.2,149.6 173,152.2 166.3,152.4 161.6,153.1 156.2,154.3 
	156.5,149 160.8,146.8 161.1,144.3 165.2,141.5 165.3,136.8 169.1,136.6 170.7,133.5 174.2,133.5 175.2,131.3 172.8,128.4 
	172.3,125.6 173.5,122 178.4,121.2 183.3,124.1 187.1,124.3 191.6,121.7 194.5,121.3 200,124.6 202.4,122.9 203.9,122.5 
	203.8,124.3 200.6,127.9 199.3,135 202.3,135 204.2,136.1 207.1,135.3 209.3,136.5 210.8,139.4 218.3,135.9 "/>
<polyline id="italienne" class="st1" points="392.5,332.9 394.7,331.7 397.8,331.7 399.4,329.1 398.4,326.8 398.8,323.3 
	402.2,319.2 405.2,319.9 407.2,320 409.3,322.3 411.5,321.9 413.8,321.4 414.8,321.8 414.8,323.7 416.2,324.2 419.3,324 
	420.4,321.4 420.7,320.8 420.7,316.1 420.7,313.9 420.6,313.9 417.9,308.8 419.1,306.9 419.2,305.2 421.4,304.4 422.8,303.4 
	422.5,301.1 421.1,300.1 421.4,297.7 423.1,297.7 424.6,294.9 427.8,295.5 431,292.8 432.9,291.5 432.1,289.2 433.3,287.2 
	435.3,285.8 436.7,286.7 437.9,289 440.7,288.5 442.6,286.5 442.9,282.4 445.4,281.1 445.4,280.1 444.5,275.6 445.3,274.7 
	447.4,274.5 451.9,270.4 454.6,270.7 457.6,271.6 457.4,273.1 459.4,274.5 463,272.6 466.5,272 471.4,271.3 474.3,269.1 
	474.3,266.9 477.1,262.4 476.8,259.5 479.4,257.8 483,257.8 485.4,260.7 486.1,262.4 487.8,262.2 491.7,258.9 493.8,256.4 
	499.1,256.3 503.6,250.2 506.7,248.9 508.8,250.4 511.1,250.3 516,250.6 518,251.8 520.9,251.9 523.4,252.8 528.2,253 530.8,254 
	533.3,254.8 536.6,257.6 538.8,255.2 539,252.7 541.2,250.2 542.5,249.5 541,248 540.8,246.5 542.6,243.9 544.9,240.2 546.5,240.1 
	546.4,236.7 547.5,236.3 550.7,236 550.1,234.4 546.7,230.7 541.9,222.6 540.8,219.5 543.7,218.3 547.7,217.2 551.3,217.1 
	553,219.7 559.9,217.5 562.4,219.2 564.2,219.6 566.3,217.5 570.7,217 575.8,221.2 578.9,221.2 580.8,222.9 586.5,222.9 
	589.7,225.8 593.5,228.3 596,228 599.7,228 598.5,229 601.6,232.2 598.4,234.7 598.4,242.9 606.8,248.8 614.5,248.9 616.1,251.8 
	620.7,252.1 625.4,256.3 625.3,259.5 629.7,260.5 633.3,264.8 639.1,263 643.1,262.7 646.5,259.6 652.6,258.7 652,253 653.2,250.8 
	653.3,245.3 656.2,245.2 661.2,247.7 664.4,246 663.3,244 663.3,241.4 666.4,240.1 667.4,236.1 669.5,232.1 672.7,232.5 
	675.3,229.9 680.2,234.3 680.6,239.4 684.2,240 689.5,243.1 689.8,247.4 687.7,252.4 687.7,263.1 686.6,263.7 684.5,272.6 
	682.8,273.4 680.5,275.7 682.6,277.4 683.7,282.6 682,284.2 677.4,287.2 679.6,289.9 679.2,293.5 677.4,293.5 674.5,298.4 
	675.8,300.7 675.7,305 678,309.4 680.4,308.5 684.6,308.2 690.8,314 690.2,316.1 690.2,323.7 688.5,328.1 685,331.6 680.2,327.4 
	678.8,328.1 676.7,328.5 671,326.5 668.8,329 666,329.2 664.1,329.2 660.8,325.3 657.3,323.2 656,323.2 654.1,321.7 653.7,318 
	655.6,315.6 655.2,312.4 653.7,309.8 651.5,310 649.2,313.8 647.7,313 644.5,313 638.3,315.7 635.9,315.9 633.2,314.6 632.6,321.5 
	630.7,321.5 630.7,323.3 628,325.7 627.9,327.9 625,329.4 625.4,334.2 624.2,335.8 625.6,344.3 625.5,347 623.6,349.6 629.2,354.6 
	632.6,355 635.7,353 639.5,353 640.1,355.9 642.3,357.1 641.5,361.9 639.1,362.3 636.3,364.7 636.6,367.9 634.3,370.8 634.6,376.9 
	640,382.5 641.2,386.4 644,390 638.5,396.9 630.1,397 628.2,398.5 625.1,396.1 626.5,393.9 627.2,390.2 622.6,385.9 617.4,384.4 
	616.5,382.3 618.5,379.5 615.9,377.1 615.4,375.2 617.6,370.3 615,369.6 612.6,367.6 611.3,364.4 609.2,363.9 607.1,366.9 
	603.8,363.7 598.9,367.7 593.5,367.4 592.1,369.7 589.4,370.5 585.9,373.4 584,373.7 580.9,370.6 577.1,371 577.1,374.8 
	575.9,375.8 577,378.3 575.6,382.3 572.4,382.9 569.2,380.8 566.4,383.8 562.5,384.1 559.8,382 556.2,382.3 553.8,380.1 
	551.3,380.6 546.6,375.6 543.1,367.5 538.6,364.3 539.2,361.6 537.7,356.5 538.9,343.1 537.8,343.5 536.8,342.4 538.6,339 
	537.5,336.1 533,339.9 531.5,344.8 530.2,345.7 525.4,340.9 525.2,337.4 523.7,336.1 522.5,337.2 517.2,337.1 512.5,338.7 
	510.5,341.2 511.3,346.1 510,348.4 507.8,348.7 506,350.7 507.3,355.1 509.4,355.2 511.8,358.3 510.8,359.6 510.8,360.3 
	512.6,362.7 510.8,364.7 510.8,367.2 512.5,369.7 512.5,372.3 512.4,373 514,375.3 513,377.1 511.1,379.3 511.9,379.7 511.8,381.5 
	507.4,385.5 507.4,386.8 506.6,388.1 506.2,395.4 502.8,396.3 502,398.9 498.1,401.3 498.1,406.3 497.2,407.6 495.1,408 
	493.4,409.9 488.7,413.3 488.4,415.6 482,419 481,420.6 482.8,424.3 483.1,426.9 482.2,427.6 481.8,431.8 477.1,431.9 472.8,434.7 
	471.1,437.6 472.6,440.8 473.4,446 469.4,449.2 468,452.1 471.8,453 472.5,460.3 476,460.8 480.4,464 481,465.8 482.6,466.2 
	482.9,467.4 481.1,468.8 481.1,470.1 477.1,474.7 473.6,485.6 469.8,485.6 469.3,481 467.5,480.4 467.2,481.2 465.3,481.3 
	463.9,479.9 461.6,479.5 458.3,481.2 456.5,481.7 456.9,479.1 458.4,476.5 461.6,473.9 459.4,472.6 457.3,468.2 457.3,465 
	454.7,461.2 454.7,454.3 452.2,454.6 450.7,454.2 445.6,448.8 442.9,448 439.1,448.1 437.8,447 439,445.2 439.6,442 442.4,439.9 
	444.7,437.4 445.3,434.6 448.1,434.2 448.4,429.7 445.8,428.3 441.6,423.3 438.9,426.1 437,426.1 433.2,421.9 431.3,420.1 
	428.1,424.3 427.1,423.9 424.9,423.7 422.8,421.4 419,421 418,419 416.3,418.6 414,419.5 412.2,419.6 412.2,417 409.4,414.8 
	411.4,413.3 411.4,412 408,411 406.3,410.1 406.3,407.6 404.6,405.7 404.6,405.1 402,402.3 400.3,398.3 398,398.4 397.1,396.8 
	393.2,396.6 391.1,394.8 390.5,392.4 388.1,392.3 387.8,390.6 389.2,389.5 389.2,387.7 386.1,383.7 385.4,381.8 387.6,379.8 
	387.6,377.3 390.3,374.4 391,371.9 390.3,370 391.1,368.1 390.9,365.4 389.3,363.4 389.3,359 389.1,356.2 389.5,352.1 390.5,349.4 
	387.8,346.1 385.9,346.1 380.5,348.5 378.9,348.6 379.3,346.1 380.1,344.5 379.5,342.7 380.4,339.5 382.2,340 386.9,339 
	390.9,335.5 392.5,332.9 "/>
<polygon id="alemanie" class="st2" points="221.9,135 225.7,136.2 230.6,136.9 236.8,133.8 239.7,130.4 240.9,129.3 240.3,127.1 
	236.5,125.7 238.1,123.2 240.4,123.3 243.6,126 245.6,126.3 247.5,124.7 249.7,121.4 248.6,118.5 248.8,116.9 250.4,118.2 
	251.6,118.6 251.6,114.8 250.4,115.5 248,115.1 249,112.8 253.3,109.9 257.2,106 260.3,105.9 261.4,102 262.8,101.5 263.9,104.4 
	265.8,104.9 267.9,102.8 272.1,102.7 275.1,100.6 274.7,103 276.1,104.9 275.3,107.5 273.5,107.7 270.6,110.1 274.8,114.1 
	277.3,114.1 280.4,112.1 284.7,111.9 291.5,109.3 294.2,106.6 294.6,103.3 296.8,102.8 297.9,104 299.5,104.2 301.6,102.5 
	305,102.4 307.9,104.2 308.7,107.8 308.4,110 310.4,111.9 313.9,112.4 315.3,110.1 317.5,109.8 323.4,110.1 324,111.5 326.5,111.5 
	331.1,108.5 333,108 334.1,109.3 336.5,109.4 337.9,105.6 341.7,105.6 343.2,102.1 346.7,101.1 352.8,95.2 354.7,95.9 354.7,99 
	356.4,98.6 359.8,96.6 360.6,97.8 365.7,98.2 365.9,102.5 370.2,106.5 376.1,106.6 378.1,107.3 381.5,105.1 384,107.1 389,107 
	395.2,104.9 395.4,103.2 393.3,103.3 391,102.5 389.9,100.2 394.1,97.3 398.2,95.5 398.3,93.1 400.3,92.6 403.5,93.8 406.1,96.3 
	405.1,99.6 407.3,100.6 410.1,99.1 411.8,97.3 410.7,95.3 410,92.1 411.4,91.6 413.8,91.7 415.3,89.1 412.2,85.8 412,84.5 410.9,84 
	407.7,86.3 406,86 402.9,86 401.2,87.2 400.5,89.7 397.8,89.8 394.5,90.3 391.7,91 390.5,88.2 387.4,87.8 386,85.8 383.3,85.5 
	382,83.7 384,82.5 384.3,80.8 383,79.5 383.4,76.1 389.8,72.6 389.2,70.5 390.4,67.1 395.3,63.1 399.1,63.1 403.9,60 405.9,61 
	407.5,60.5 407.6,58.5 406.1,58.2 405.3,56.2 406.6,55 407.9,57.1 411.7,57.1 413.5,57.5 413.3,60.8 414.2,63.7 415.6,64.9 
	417.9,62.9 417.8,57.8 419.3,56.4 420.6,58.5 422.9,59 423.7,61.2 422.8,63.1 423.4,64.8 425.7,64.5 428.4,63.5 431.3,66.7 
	431.3,68.2 430.6,68.2 427.5,69.4 427.5,72.4 430.4,73.4 430.7,74.7 429.6,77.1 429.3,79.6 433.2,80.2 437.8,83.4 439.8,83.7 
	439.9,80.6 441.5,79.5 440.2,78.6 439.4,76.9 436.1,76.3 436.2,74.2 438.2,72.4 439.5,72.4 441.3,70.4 441.6,72.8 443.7,73.6 
	443.8,75.4 445.6,75 448.6,76.8 448.8,78.6 447.9,81.4 450.1,83.6 450.9,86.9 453.7,89.4 460.3,88.5 471.8,81.6 476.9,80.8 
	479.3,82 484.3,82.3 490.5,86.4 493.2,84.8 496.1,85.2 496.5,87.4 499.1,90.1 504.2,92 511.6,96.2 518,101.5 526.8,106.7 
	526.4,110.3 534,117.3 534.4,120.3 541.7,126.8 548.6,126.8 552.4,122.1 559.4,130.5 564.4,130.7 567.1,133.4 565.5,135.1 
	566.6,142.1 569.7,145.8 570,148 568.1,150.3 564.7,150.7 561.8,151.8 558.2,156.9 557.4,162 552.1,166.2 548.1,171.8 547.5,176.1 
	542.1,187.7 541.8,194.6 546.1,203.4 546.6,209.9 544.3,213.4 539.5,216.3 541.9,223.3 546.7,231.3 550.1,235 550.7,236.7 
	547.5,236.9 546.4,237.3 546.5,240.7 544.9,240.9 540.8,247.1 541,248.6 542.5,250.1 541.2,250.8 539,253.3 538.8,255.8 
	536.6,258.2 533.3,255.4 530.8,254.7 528.2,253.7 523.4,253.5 520.9,252.6 518,252.4 516,251.2 511.1,251 508.8,251.1 506.7,249.6 
	503.6,250.8 499.1,256.9 493.8,257.1 491.7,259.6 487.8,262.8 486.1,263 485.4,261.8 483,259.5 479.2,259.5 476.7,260.6 
	477.1,263.3 474.3,267.5 474.3,270 471.4,272 463.1,273.3 459.4,275.1 457.4,273.7 457.6,272.2 454.6,271.3 451.9,271 447.5,275.1 
	445.3,275.3 444.5,276.2 445.4,280.8 445.4,282 442.9,283.1 442.6,287.1 440.7,289.1 437.9,289.7 436.7,287.3 435.3,286.4 
	433.3,287.8 432.1,289.8 432.9,292 427.8,296 424.6,295.7 423.1,298.6 421.2,298.6 421.1,300.8 422.5,302 422.8,304.1 421.4,305 
	419.2,305.7 419.1,307.3 417.9,309.6 420.6,314.7 422.4,314.7 422.8,322.2 421.4,322.3 419.3,324.8 416.2,324.9 414.8,324.3 
	414.8,322.4 413.8,322 411.6,322.5 409.3,322.9 407.2,320.6 405.2,320.5 402.2,319.8 398.8,323.9 398.4,327.2 399.4,329.4 
	397.8,331.7 394.7,331.7 390.7,331.7 388.5,331.4 385.1,328.6 384.3,324.7 382.6,321.3 382.9,316.2 384.3,314 383.3,310.5 
	383.3,308.5 383.3,306.6 381.9,305.7 376.5,311 376.5,315.5 374,318 374,322.4 372,325.7 369.5,326.3 365.7,329.6 361.4,332.6 
	354.1,333 348.8,334.6 347.6,332.1 343.3,332.2 338.9,328.8 334.4,327 330.7,327.4 327,325.6 323.1,325.4 318.8,329.4 315.9,330 
	315.9,332.2 316.9,334.4 315.1,336.8 312,336.7 308.9,341.4 303.9,342.9 298.8,343.3 295.5,346.5 291.8,347.6 286.8,353.2 
	282.7,354.8 278.7,357.4 275.9,354.5 266.9,350.6 263.8,352.7 264.1,356.2 262.3,358.3 260.6,356.5 257.9,357.1 254.1,357.3 
	252.4,360 254.3,360.9 255.9,363.4 254.9,363.7 253.8,365.4 249.1,365.3 248.4,366.8 246.5,366.6 245.8,364 244.5,364 242.3,365.7 
	241.1,364 238.7,363.5 234,365.6 224.7,371.3 220.2,371.6 220.7,367.5 220.3,365 218.4,367.5 214.5,368.1 212.4,369.8 212.3,374.9 
	209.8,376.8 207.3,376.8 207.9,368.5 205.7,368.6 205,366.9 203.2,364.1 205.7,360.3 205.7,355.8 202.9,353 204.8,353 207.7,351.5 
	208.1,347.2 207.1,341.8 210.9,337.6 210.4,331 209,327.2 213.5,324.2 216.6,320.9 218,322.4 219.3,322.4 221.2,319 221.4,313.6 
	220.6,313.4 220.5,310.5 222.4,310.5 223.3,308.3 221.4,306 225.1,305.8 227.5,308.4 228.9,305.9 229,303.8 229.4,300.2 
	230.2,297.8 228.7,296.6 226.2,296.1 226.5,293.6 224.3,292.6 220.5,292.6 219.1,291.1 217.9,288 218.9,286 219,282.5 216.9,280.1 
	218.4,277 218.4,273.2 220.8,271.3 221.7,269 222.7,267.3 221.9,265.2 219.2,263.6 219.8,262 222.1,261.1 223.2,263.3 225.4,262.8 
	227,260.4 226.4,255.8 225.2,254.8 220.9,254.3 220.5,253.5 215.5,253.5 211.1,253.3 207.3,252.6 204.8,252.6 204.6,249 206,247.5 
	208.5,247.5 208.8,244.1 207.7,243.9 205.3,244.4 205.7,240.4 205.7,238.5 207.9,235.5 208,233.4 206.8,229.1 205.3,228.7 
	198.6,233 193.9,234.5 188,235.1 183,236.2 180,235.3 179.5,233.8 178.4,232 177.8,229.5 179.3,228.5 179.2,224.6 180.7,221.7 
	183.9,221.1 186.4,219.4 186.9,217.4 185.9,215.7 186.5,213.1 186.4,210.6 183.4,209.1 181.5,207.4 178.4,208 178.1,206 
	179.5,204.5 179.4,203 174.6,204.2 171.7,205.8 166.8,206.2 160.6,209 154.7,212.4 154.6,210.2 155.4,207.6 157.3,205.3 
	157.7,202.5 153.6,195.4 155.5,194.1 156.8,198.2 158.7,198.2 160.9,196.9 166.4,190.9 168.2,191.1 170.1,193.1 172,193.1 
	172.5,191.8 172.5,189.9 174.5,189.7 177,189.7 179.5,186.5 180.3,183.1 182.8,180.9 183.2,178.7 185.7,178.2 186.5,179.5 
	187.7,179.5 190.1,177.6 191.5,177.8 195.3,177.8 196.9,175.6 196,175.4 195.7,174 196.6,172.2 198.6,171.2 199.1,166.7 
	204.8,166.6 205.9,168.2 213.4,168.8 218.4,168.5 220.1,168.1 223.6,165 227.9,163.9 229.5,162.3 233,162.7 234.2,162.8 
	236.6,163.9 243.1,164.2 245.1,165.9 247.7,165.9 250.2,163.4 254.6,161.9 253,161.1 251.8,159.7 256.5,156.3 253.5,154.8 
	254,152.7 251.9,151.8 251.8,149.5 249.6,149.1 246.9,150.6 243.3,150.2 239.6,148.5 235.4,148.3 235.4,145.1 233,144.4 230,142.1 
	226.2,142.1 226.5,139.8 223.3,137.8 "/>
</svg>
